
<svg id="Capa_1" enable-background="new 0 0 510.969 510.969" height="512" viewBox="0 0 510.969 510.969" width="512" xmlns="http://www.w3.org/2000/svg"><g><path d="m246.935 206.49c.034-.103 1.948 1.355-42.507-29.561l1.409-4.924-28.843-8.251-66.546 232.61 16.098 114.604 74.275-88.743 60.536-211.61z" fill="#ffdc40"/><path d="m333.976 163.754-28.843 8.251 1.409 4.924c-43.97 30.578-42.54 29.461-42.507 29.561l-8.55 3.169v21.481l54.664 191.085 74.275 88.743 16.098-114.604z" fill="#fabe2c"/><path d="m208.485 0h94v94h-94z" fill="#61729b"/><path d="m255.485 0h47v94h-47z" fill="#47568c"/><path d="m306.527 82.383-13.702 31.149c0 47.97-37.34 108.468-37.34 108.468-47.97 0-87-39.03-87-87v-71h87z" fill="#d9e6fc"/><path d="m342.485 64v71c0 47.97-39.03 87-87 87v-158z" fill="#bed9fd"/><path d="m420.925 254.51c-73.576 127.208-257.291 127.23-330.88 0l25.97-15.02c61.96 107.099 216.923 107.197 278.94 0z" fill="#47568c"/><path d="m420.925 254.51c-33.085 57.201-94.92 95.49-165.44 95.49v-30c57.3 0 110.74-30.85 139.47-80.51z" fill="#263467"/><path d="m240.485 127h30v32h-30z" fill="#61729b"/><path d="m255.485 127h15v32h-15z" fill="#47568c"/></g></svg>